# MagicaVoxel @ Ephtracy

# group
o 

# material
mtllib Gun.mtl
usemtl palette

# normals
vn -1 0 0
vn 1 0 0
vn 0 0 1
vn 0 0 -1
vn 0 -1 0
vn 0 1 0

# texcoords
vt 0.982422 0.5

# verts
v -0.6 0 1.7
v -0.6 0 -0.6
v -0.6 0.1 1.7
v -0.6 0.1 -0.5
v -0.6 0.2 -0.5
v -0.6 0.2 -0.6
v -0.4 0.1 1.6
v -0.4 0.1 -0.5
v -0.4 0.2 1.6
v -0.4 0.2 -0.5
v -0.3 0.2 1.5
v -0.3 0.2 -0.6
v -0.3 0.3 1.5
v -0.3 0.3 -0.6
v 0.4 0.1 1.7
v 0.4 0.1 -0.5
v 0.4 0.2 1.7
v 0.4 0.2 1.5
v 0.4 0.2 -0.5
v 0.5 0 1.7
v 0.5 0 -0.5
v 0.5 0.1 1.7
v 0.5 0.1 -0.5
v -0.4 0 1.7
v -0.4 0 -0.5
v -0.4 0.1 1.7
v -0.4 0.1 1.6
v -0.4 0.1 -0.5
v -0.3 0.1 1.6
v -0.3 0.1 -0.5
v -0.3 0.2 1.6
v -0.3 0.2 1.5
v -0.3 0.2 -0.5
v 0.4 0.2 1.5
v 0.4 0.2 -0.6
v 0.4 0.3 1.5
v 0.4 0.3 -0.6
v 0.5 0.1 1.7
v 0.5 0.1 -0.5
v 0.5 0.2 1.7
v 0.5 0.2 -0.5
v 0.7 0 1.7
v 0.7 0 -0.6
v 0.7 0.1 1.7
v 0.7 0.1 -0.5
v 0.7 0.2 -0.5
v 0.7 0.2 -0.6
v -0.6 0 1.7
v -0.6 0.1 1.7
v -0.4 0 1.7
v -0.4 0.1 1.7
v 0.4 0.1 1.7
v 0.4 0.2 1.7
v 0.5 0 1.7
v 0.5 0.1 1.7
v 0.5 0.2 1.7
v 0.7 0 1.7
v 0.7 0.1 1.7
v -0.4 0.1 1.6
v -0.4 0.2 1.6
v -0.3 0.1 1.6
v -0.3 0.2 1.6
v -0.3 0.2 1.5
v -0.3 0.3 1.5
v 0.4 0.2 1.5
v 0.4 0.3 1.5
v -0.6 0.1 -0.5
v -0.6 0.2 -0.5
v -0.4 0 -0.5
v -0.4 0.1 -0.5
v -0.4 0.2 -0.5
v -0.3 0.1 -0.5
v -0.3 0.2 -0.5
v 0.4 0.1 -0.5
v 0.4 0.2 -0.5
v 0.5 0 -0.5
v 0.5 0.1 -0.5
v 0.5 0.2 -0.5
v 0.7 0.1 -0.5
v 0.7 0.2 -0.5
v -0.6 0 -0.6
v -0.6 0.2 -0.6
v -0.3 0.2 -0.6
v -0.3 0.3 -0.6
v 0.4 0.2 -0.6
v 0.4 0.3 -0.6
v 0.7 0 -0.6
v 0.7 0.2 -0.6
v -0.6 0 1.7
v -0.4 0 1.7
v 0.5 0 1.7
v 0.7 0 1.7
v -0.4 0 -0.5
v 0.5 0 -0.5
v -0.6 0 -0.6
v 0.7 0 -0.6
v 0.4 0.1 1.7
v 0.5 0.1 1.7
v -0.4 0.1 1.6
v -0.3 0.1 1.6
v -0.4 0.1 -0.5
v -0.3 0.1 -0.5
v 0.4 0.1 -0.5
v 0.5 0.1 -0.5
v -0.3 0.2 1.5
v 0.4 0.2 1.5
v -0.3 0.2 -0.5
v 0.4 0.2 -0.5
v -0.6 0.1 1.7
v -0.4 0.1 1.7
v 0.5 0.1 1.7
v 0.7 0.1 1.7
v -0.4 0.1 1.6
v -0.6 0.1 -0.5
v -0.4 0.1 -0.5
v 0.5 0.1 -0.5
v 0.7 0.1 -0.5
v 0.4 0.2 1.7
v 0.5 0.2 1.7
v -0.4 0.2 1.6
v -0.3 0.2 1.6
v -0.3 0.2 1.5
v 0.4 0.2 1.5
v -0.6 0.2 -0.5
v -0.4 0.2 -0.5
v 0.5 0.2 -0.5
v 0.7 0.2 -0.5
v -0.6 0.2 -0.6
v -0.3 0.2 -0.6
v 0.4 0.2 -0.6
v 0.7 0.2 -0.6
v -0.3 0.3 1.5
v 0.4 0.3 1.5
v -0.3 0.3 -0.6
v 0.4 0.3 -0.6

# faces
f 3/1/1 2/1/1 1/1/1
f 4/1/1 2/1/1 3/1/1
f 5/1/1 2/1/1 4/1/1
f 6/1/1 2/1/1 5/1/1
f 9/1/1 8/1/1 7/1/1
f 10/1/1 8/1/1 9/1/1
f 13/1/1 12/1/1 11/1/1
f 14/1/1 12/1/1 13/1/1
f 17/1/1 16/1/1 15/1/1
f 18/1/1 16/1/1 17/1/1
f 19/1/1 16/1/1 18/1/1
f 22/1/1 21/1/1 20/1/1
f 23/1/1 21/1/1 22/1/1
f 24/1/2 25/1/2 26/1/2
f 26/1/2 25/1/2 27/1/2
f 27/1/2 25/1/2 28/1/2
f 29/1/2 30/1/2 31/1/2
f 31/1/2 30/1/2 32/1/2
f 32/1/2 30/1/2 33/1/2
f 34/1/2 35/1/2 36/1/2
f 36/1/2 35/1/2 37/1/2
f 38/1/2 39/1/2 40/1/2
f 40/1/2 39/1/2 41/1/2
f 42/1/2 43/1/2 44/1/2
f 44/1/2 43/1/2 45/1/2
f 45/1/2 43/1/2 46/1/2
f 46/1/2 43/1/2 47/1/2
f 50/1/3 49/1/3 48/1/3
f 51/1/3 49/1/3 50/1/3
f 55/1/3 53/1/3 52/1/3
f 56/1/3 53/1/3 55/1/3
f 57/1/3 55/1/3 54/1/3
f 58/1/3 55/1/3 57/1/3
f 61/1/3 60/1/3 59/1/3
f 62/1/3 60/1/3 61/1/3
f 65/1/3 64/1/3 63/1/3
f 66/1/3 64/1/3 65/1/3
f 70/1/3 68/1/3 67/1/3
f 71/1/3 68/1/3 70/1/3
f 72/1/3 70/1/3 69/1/3
f 74/1/3 72/1/3 69/1/3
f 74/1/3 73/1/3 72/1/3
f 75/1/3 73/1/3 74/1/3
f 76/1/3 74/1/3 69/1/3
f 77/1/3 74/1/3 76/1/3
f 79/1/3 78/1/3 77/1/3
f 80/1/3 78/1/3 79/1/3
f 81/1/4 82/1/4 83/1/4
f 81/1/4 83/1/4 85/1/4
f 83/1/4 84/1/4 85/1/4
f 85/1/4 84/1/4 86/1/4
f 81/1/4 85/1/4 87/1/4
f 87/1/4 85/1/4 88/1/4
f 93/1/5 90/1/5 89/1/5
f 94/1/5 92/1/5 91/1/5
f 95/1/5 93/1/5 89/1/5
f 95/1/5 94/1/5 93/1/5
f 96/1/5 92/1/5 94/1/5
f 96/1/5 94/1/5 95/1/5
f 101/1/5 100/1/5 99/1/5
f 102/1/5 100/1/5 101/1/5
f 103/1/5 98/1/5 97/1/5
f 104/1/5 98/1/5 103/1/5
f 107/1/5 106/1/5 105/1/5
f 108/1/5 106/1/5 107/1/5
f 109/1/6 110/1/6 113/1/6
f 109/1/6 113/1/6 114/1/6
f 114/1/6 113/1/6 115/1/6
f 111/1/6 112/1/6 116/1/6
f 116/1/6 112/1/6 117/1/6
f 120/1/6 121/1/6 122/1/6
f 118/1/6 119/1/6 123/1/6
f 120/1/6 122/1/6 125/1/6
f 123/1/6 119/1/6 126/1/6
f 124/1/6 125/1/6 128/1/6
f 125/1/6 122/1/6 129/1/6
f 128/1/6 125/1/6 129/1/6
f 126/1/6 127/1/6 130/1/6
f 123/1/6 126/1/6 130/1/6
f 130/1/6 127/1/6 131/1/6
f 132/1/6 133/1/6 134/1/6
f 134/1/6 133/1/6 135/1/6
