# MagicaVoxel @ Ephtracy

# group
o 

# material
mtllib Bpdy.mtl
usemtl palette

# normals
vn -1 0 0
vn 1 0 0
vn 0 0 1
vn 0 0 -1
vn 0 -1 0
vn 0 1 0

# texcoords
vt 0.904297 0.5
vt 0.982422 0.5

# verts
v -2 0 1.5
v -2 0 -1.4
v -2 0.1 1.5
v -2 0.1 -1.4
v -1.8 0.1 1.4
v -1.8 0.1 -1.3
v -1.8 0.2 1.4
v -1.8 0.2 -1.3
v -1.7 0.2 1.3
v -1.7 0.2 -1.2
v -1.7 0.3 1.3
v -1.7 0.3 -1.2
v -1.6 0.3 1.1
v -1.6 0.3 -1.1
v -1.6 0.4 1.1
v -1.6 0.4 -1.1
v -1.5 0.4 1
v -1.5 0.4 -1
v -1.5 0.5 1
v -1.5 0.5 -1
v 1.7 0 1.5
v 1.7 0 -1.4
v 1.7 0.1 1.5
v 1.7 0.1 1.4
v 1.7 0.1 -1.3
v 1.7 0.1 -1.4
v -1.7 0 1.5
v -1.7 0 -1.4
v -1.7 0.1 1.5
v -1.7 0.1 1.4
v -1.7 0.1 -1.3
v -1.7 0.1 -1.4
v 1.6 0.4 1
v 1.6 0.4 -1
v 1.6 0.5 1
v 1.6 0.5 -1
v 1.7 0.3 1.1
v 1.7 0.3 -1.1
v 1.7 0.4 1.1
v 1.7 0.4 -1.1
v 1.8 0.2 1.3
v 1.8 0.2 -1.2
v 1.8 0.3 1.3
v 1.8 0.3 -1.2
v 1.9 0.1 1.4
v 1.9 0.1 -1.3
v 1.9 0.2 1.4
v 1.9 0.2 -1.3
v 2 0 1.5
v 2 0 -1.4
v 2 0.1 1.5
v 2 0.1 -1.4
v -2 0 1.5
v -2 0.1 1.5
v -1.7 0 1.5
v -1.7 0.1 1.5
v 1.7 0 1.5
v 1.7 0.1 1.5
v 2 0 1.5
v 2 0.1 1.5
v -1.8 0.1 1.4
v -1.8 0.2 1.4
v -1.7 0.1 1.4
v 1.7 0.1 1.4
v 1.9 0.1 1.4
v 1.9 0.2 1.4
v -1.7 0.2 1.3
v -1.7 0.3 1.3
v 1.8 0.2 1.3
v 1.8 0.3 1.3
v -1.6 0.3 1.1
v -1.6 0.4 1.1
v 1.7 0.3 1.1
v 1.7 0.4 1.1
v -1.5 0.4 1
v -1.5 0.5 1
v 1.6 0.4 1
v 1.6 0.5 1
v -1.5 0.4 -1
v -1.5 0.5 -1
v 1.6 0.4 -1
v 1.6 0.5 -1
v -1.6 0.3 -1.1
v -1.6 0.4 -1.1
v 1.7 0.3 -1.1
v 1.7 0.4 -1.1
v -1.7 0.2 -1.2
v -1.7 0.3 -1.2
v 1.8 0.2 -1.2
v 1.8 0.3 -1.2
v -1.8 0.1 -1.3
v -1.8 0.2 -1.3
v -1.7 0.1 -1.3
v 1.7 0.1 -1.3
v 1.9 0.1 -1.3
v 1.9 0.2 -1.3
v -2 0 -1.4
v -2 0.1 -1.4
v -1.7 0 -1.4
v -1.7 0.1 -1.4
v 1.7 0 -1.4
v 1.7 0.1 -1.4
v 2 0 -1.4
v 2 0.1 -1.4
v -2 0 1.5
v -1.7 0 1.5
v 1.7 0 1.5
v 2 0 1.5
v -2 0 -1.4
v -1.7 0 -1.4
v 1.7 0 -1.4
v 2 0 -1.4
v -1.7 0.1 1.4
v 1.7 0.1 1.4
v -1.7 0.1 -1.3
v 1.7 0.1 -1.3
v -2 0.1 1.5
v -1.7 0.1 1.5
v 1.7 0.1 1.5
v 2 0.1 1.5
v -1.8 0.1 1.4
v -1.7 0.1 1.4
v 1.7 0.1 1.4
v 1.9 0.1 1.4
v -1.8 0.1 -1.3
v -1.7 0.1 -1.3
v 1.7 0.1 -1.3
v 1.9 0.1 -1.3
v -2 0.1 -1.4
v -1.7 0.1 -1.4
v 1.7 0.1 -1.4
v 2 0.1 -1.4
v -1.8 0.2 1.4
v 1.9 0.2 1.4
v -1.7 0.2 1.3
v 1.8 0.2 1.3
v -1.7 0.2 -1.2
v 1.8 0.2 -1.2
v -1.8 0.2 -1.3
v 1.9 0.2 -1.3
v -1.7 0.3 1.3
v 1.8 0.3 1.3
v -1.6 0.3 1.1
v 1.7 0.3 1.1
v -1.6 0.3 -1.1
v 1.7 0.3 -1.1
v -1.7 0.3 -1.2
v 1.8 0.3 -1.2
v -1.6 0.4 1.1
v 1.7 0.4 1.1
v -1.5 0.4 1
v 1.6 0.4 1
v -1.5 0.4 -1
v 1.6 0.4 -1
v -1.6 0.4 -1.1
v 1.7 0.4 -1.1
v -1.5 0.5 1
v 1.6 0.5 1
v -1.5 0.5 -1
v 1.6 0.5 -1

# faces
f 3/2/1 2/2/1 1/2/1
f 4/2/1 2/2/1 3/2/1
f 7/1/1 6/1/1 5/1/1
f 8/1/1 6/1/1 7/1/1
f 11/1/1 10/1/1 9/1/1
f 12/1/1 10/1/1 11/1/1
f 15/1/1 14/1/1 13/1/1
f 16/1/1 14/1/1 15/1/1
f 19/1/1 18/1/1 17/1/1
f 20/1/1 18/1/1 19/1/1
f 23/2/1 22/2/1 21/2/1
f 24/2/1 22/2/1 23/2/1
f 25/2/1 22/2/1 24/2/1
f 26/2/1 22/2/1 25/2/1
f 27/2/2 28/2/2 29/2/2
f 29/2/2 28/2/2 30/2/2
f 30/2/2 28/2/2 31/2/2
f 31/2/2 28/2/2 32/2/2
f 33/1/2 34/1/2 35/1/2
f 35/1/2 34/1/2 36/1/2
f 37/1/2 38/1/2 39/1/2
f 39/1/2 38/1/2 40/1/2
f 41/1/2 42/1/2 43/1/2
f 43/1/2 42/1/2 44/1/2
f 45/1/2 46/1/2 47/1/2
f 47/1/2 46/1/2 48/1/2
f 49/2/2 50/2/2 51/2/2
f 51/2/2 50/2/2 52/2/2
f 55/2/3 54/2/3 53/2/3
f 56/2/3 54/2/3 55/2/3
f 59/2/3 58/2/3 57/2/3
f 60/2/3 58/2/3 59/2/3
f 63/1/3 62/1/3 61/1/3
f 64/1/3 62/1/3 63/1/3
f 65/1/3 62/1/3 64/1/3
f 66/1/3 62/1/3 65/1/3
f 69/1/3 68/1/3 67/1/3
f 70/1/3 68/1/3 69/1/3
f 73/1/3 72/1/3 71/1/3
f 74/1/3 72/1/3 73/1/3
f 77/1/3 76/1/3 75/1/3
f 78/1/3 76/1/3 77/1/3
f 79/1/4 80/1/4 81/1/4
f 81/1/4 80/1/4 82/1/4
f 83/1/4 84/1/4 85/1/4
f 85/1/4 84/1/4 86/1/4
f 87/1/4 88/1/4 89/1/4
f 89/1/4 88/1/4 90/1/4
f 91/1/4 92/1/4 93/1/4
f 93/1/4 92/1/4 94/1/4
f 94/1/4 92/1/4 95/1/4
f 95/1/4 92/1/4 96/1/4
f 97/2/4 98/2/4 99/2/4
f 99/2/4 98/2/4 100/2/4
f 101/2/4 102/2/4 103/2/4
f 103/2/4 102/2/4 104/2/4
f 109/2/5 106/2/5 105/2/5
f 110/2/5 106/2/5 109/2/5
f 111/2/5 108/2/5 107/2/5
f 112/2/5 108/2/5 111/2/5
f 115/1/5 114/1/5 113/1/5
f 116/1/5 114/1/5 115/1/5
f 117/2/6 118/2/6 121/2/6
f 121/2/6 118/2/6 122/2/6
f 119/2/6 120/2/6 123/2/6
f 123/2/6 120/2/6 124/2/6
f 117/2/6 121/2/6 125/2/6
f 124/2/6 120/2/6 128/2/6
f 125/2/6 126/2/6 129/2/6
f 117/2/6 125/2/6 129/2/6
f 129/2/6 126/2/6 130/2/6
f 127/2/6 128/2/6 131/2/6
f 128/2/6 120/2/6 132/2/6
f 131/2/6 128/2/6 132/2/6
f 133/1/6 134/1/6 135/1/6
f 135/1/6 134/1/6 136/1/6
f 133/1/6 135/1/6 137/1/6
f 136/1/6 134/1/6 138/1/6
f 133/1/6 137/1/6 139/1/6
f 137/1/6 138/1/6 139/1/6
f 138/1/6 134/1/6 140/1/6
f 139/1/6 138/1/6 140/1/6
f 141/1/6 142/1/6 143/1/6
f 143/1/6 142/1/6 144/1/6
f 141/1/6 143/1/6 145/1/6
f 144/1/6 142/1/6 146/1/6
f 141/1/6 145/1/6 147/1/6
f 145/1/6 146/1/6 147/1/6
f 146/1/6 142/1/6 148/1/6
f 147/1/6 146/1/6 148/1/6
f 149/1/6 150/1/6 151/1/6
f 151/1/6 150/1/6 152/1/6
f 149/1/6 151/1/6 153/1/6
f 152/1/6 150/1/6 154/1/6
f 149/1/6 153/1/6 155/1/6
f 153/1/6 154/1/6 155/1/6
f 154/1/6 150/1/6 156/1/6
f 155/1/6 154/1/6 156/1/6
f 157/1/6 158/1/6 159/1/6
f 159/1/6 158/1/6 160/1/6
